<?xml version="1.0" standalone="no"?>
<svg xmlns:xlink="http://www.w3.org/1999/xlink" id="wave" style="transform:rotate(0deg); transition: 0.3s" viewBox="0 0 1440 490" version="1.1" xmlns="http://www.w3.org/2000/svg"><defs><linearGradient id="sw-gradient-0" x1="0" x2="0" y1="1" y2="0"><stop stop-color="rgba(243, 224.195, 62, 1)" offset="0%"/><stop stop-color="rgba(105.101, 11, 255, 1)" offset="100%"/></linearGradient></defs><path style="transform:translate(0, 0px); opacity:1" fill="url(#sw-gradient-0)" d="M0,49L48,89.8C96,131,192,212,288,212.3C384,212,480,131,576,122.5C672,114,768,180,864,171.5C960,163,1056,82,1152,57.2C1248,33,1344,65,1440,98C1536,131,1632,163,1728,212.3C1824,261,1920,327,2016,326.7C2112,327,2208,261,2304,196C2400,131,2496,65,2592,98C2688,131,2784,261,2880,302.2C2976,343,3072,294,3168,285.8C3264,278,3360,310,3456,318.5C3552,327,3648,310,3744,253.2C3840,196,3936,98,4032,106.2C4128,114,4224,229,4320,277.7C4416,327,4512,310,4608,318.5C4704,327,4800,359,4896,326.7C4992,294,5088,196,5184,171.5C5280,147,5376,196,5472,228.7C5568,261,5664,278,5760,302.2C5856,327,5952,359,6048,383.8C6144,408,6240,425,6336,400.2C6432,376,6528,310,6624,253.2C6720,196,6816,147,6864,122.5L6912,98L6912,490L6864,490C6816,490,6720,490,6624,490C6528,490,6432,490,6336,490C6240,490,6144,490,6048,490C5952,490,5856,490,5760,490C5664,490,5568,490,5472,490C5376,490,5280,490,5184,490C5088,490,4992,490,4896,490C4800,490,4704,490,4608,490C4512,490,4416,490,4320,490C4224,490,4128,490,4032,490C3936,490,3840,490,3744,490C3648,490,3552,490,3456,490C3360,490,3264,490,3168,490C3072,490,2976,490,2880,490C2784,490,2688,490,2592,490C2496,490,2400,490,2304,490C2208,490,2112,490,2016,490C1920,490,1824,490,1728,490C1632,490,1536,490,1440,490C1344,490,1248,490,1152,490C1056,490,960,490,864,490C768,490,672,490,576,490C480,490,384,490,288,490C192,490,96,490,48,490L0,490Z"/><defs><linearGradient id="sw-gradient-1" x1="0" x2="0" y1="1" y2="0"><stop stop-color="rgba(255, 116.125, 116.125, 1)" offset="0%"/><stop stop-color="rgba(105.1, 11, 255, 1)" offset="100%"/></linearGradient></defs><path style="transform:translate(0, 50px); opacity:0.9" fill="url(#sw-gradient-1)" d="M0,343L48,310.3C96,278,192,212,288,220.5C384,229,480,310,576,326.7C672,343,768,294,864,236.8C960,180,1056,114,1152,81.7C1248,49,1344,49,1440,106.2C1536,163,1632,278,1728,302.2C1824,327,1920,261,2016,228.7C2112,196,2208,196,2304,220.5C2400,245,2496,294,2592,318.5C2688,343,2784,343,2880,302.2C2976,261,3072,180,3168,171.5C3264,163,3360,229,3456,228.7C3552,229,3648,163,3744,171.5C3840,180,3936,261,4032,294C4128,327,4224,310,4320,277.7C4416,245,4512,196,4608,171.5C4704,147,4800,147,4896,196C4992,245,5088,343,5184,392C5280,441,5376,441,5472,392C5568,343,5664,245,5760,204.2C5856,163,5952,180,6048,228.7C6144,278,6240,359,6336,334.8C6432,310,6528,180,6624,155.2C6720,131,6816,212,6864,253.2L6912,294L6912,490L6864,490C6816,490,6720,490,6624,490C6528,490,6432,490,6336,490C6240,490,6144,490,6048,490C5952,490,5856,490,5760,490C5664,490,5568,490,5472,490C5376,490,5280,490,5184,490C5088,490,4992,490,4896,490C4800,490,4704,490,4608,490C4512,490,4416,490,4320,490C4224,490,4128,490,4032,490C3936,490,3840,490,3744,490C3648,490,3552,490,3456,490C3360,490,3264,490,3168,490C3072,490,2976,490,2880,490C2784,490,2688,490,2592,490C2496,490,2400,490,2304,490C2208,490,2112,490,2016,490C1920,490,1824,490,1728,490C1632,490,1536,490,1440,490C1344,490,1248,490,1152,490C1056,490,960,490,864,490C768,490,672,490,576,490C480,490,384,490,288,490C192,490,96,490,48,490L0,490Z"/></svg>