<?xml version="1.0" standalone="no"?>
<svg xmlns:xlink="http://www.w3.org/1999/xlink" id="wave" style="transform:rotate(0deg); transition: 0.3s" viewBox="0 0 1440 490" version="1.1" xmlns="http://www.w3.org/2000/svg"><defs><linearGradient id="sw-gradient-0" x1="0" x2="0" y1="1" y2="0"><stop stop-color="rgba(140, 51, 255, 1)" offset="0%"/><stop stop-color="rgba(237, 137, 255, 1)" offset="100%"/></linearGradient></defs><path style="transform:translate(0, 0px); opacity:1" fill="url(#sw-gradient-0)" d="M0,0L40,0C80,0,160,0,240,16.3C320,33,400,65,480,114.3C560,163,640,229,720,212.3C800,196,880,98,960,65.3C1040,33,1120,65,1200,98C1280,131,1360,163,1440,212.3C1520,261,1600,327,1680,294C1760,261,1840,131,1920,138.8C2000,147,2080,294,2160,334.8C2240,376,2320,310,2400,261.3C2480,212,2560,180,2640,171.5C2720,163,2800,180,2880,179.7C2960,180,3040,163,3120,187.8C3200,212,3280,278,3360,269.5C3440,261,3520,180,3600,155.2C3680,131,3760,163,3840,147C3920,131,4000,65,4080,106.2C4160,147,4240,294,4320,294C4400,294,4480,147,4560,147C4640,147,4720,294,4800,310.3C4880,327,4960,212,5040,147C5120,82,5200,65,5280,89.8C5360,114,5440,180,5520,245C5600,310,5680,376,5720,408.3L5760,441L5760,490L5720,490C5680,490,5600,490,5520,490C5440,490,5360,490,5280,490C5200,490,5120,490,5040,490C4960,490,4880,490,4800,490C4720,490,4640,490,4560,490C4480,490,4400,490,4320,490C4240,490,4160,490,4080,490C4000,490,3920,490,3840,490C3760,490,3680,490,3600,490C3520,490,3440,490,3360,490C3280,490,3200,490,3120,490C3040,490,2960,490,2880,490C2800,490,2720,490,2640,490C2560,490,2480,490,2400,490C2320,490,2240,490,2160,490C2080,490,2000,490,1920,490C1840,490,1760,490,1680,490C1600,490,1520,490,1440,490C1360,490,1280,490,1200,490C1120,490,1040,490,960,490C880,490,800,490,720,490C640,490,560,490,480,490C400,490,320,490,240,490C160,490,80,490,40,490L0,490Z"/><defs><linearGradient id="sw-gradient-1" x1="0" x2="0" y1="1" y2="0"><stop stop-color="rgba(0, 212.668, 255, 1)" offset="0%"/><stop stop-color="rgba(247.285, 255, 11, 1)" offset="100%"/></linearGradient></defs><path style="transform:translate(0, 50px); opacity:0.9" fill="url(#sw-gradient-1)" d="M0,245L40,204.2C80,163,160,82,240,81.7C320,82,400,163,480,236.8C560,310,640,376,720,392C800,408,880,376,960,359.3C1040,343,1120,343,1200,318.5C1280,294,1360,245,1440,261.3C1520,278,1600,359,1680,334.8C1760,310,1840,180,1920,122.5C2000,65,2080,82,2160,147C2240,212,2320,327,2400,334.8C2480,343,2560,245,2640,220.5C2720,196,2800,245,2880,245C2960,245,3040,196,3120,187.8C3200,180,3280,212,3360,245C3440,278,3520,310,3600,318.5C3680,327,3760,310,3840,261.3C3920,212,4000,131,4080,89.8C4160,49,4240,49,4320,40.8C4400,33,4480,16,4560,16.3C4640,16,4720,33,4800,40.8C4880,49,4960,49,5040,81.7C5120,114,5200,180,5280,171.5C5360,163,5440,82,5520,89.8C5600,98,5680,196,5720,245L5760,294L5760,490L5720,490C5680,490,5600,490,5520,490C5440,490,5360,490,5280,490C5200,490,5120,490,5040,490C4960,490,4880,490,4800,490C4720,490,4640,490,4560,490C4480,490,4400,490,4320,490C4240,490,4160,490,4080,490C4000,490,3920,490,3840,490C3760,490,3680,490,3600,490C3520,490,3440,490,3360,490C3280,490,3200,490,3120,490C3040,490,2960,490,2880,490C2800,490,2720,490,2640,490C2560,490,2480,490,2400,490C2320,490,2240,490,2160,490C2080,490,2000,490,1920,490C1840,490,1760,490,1680,490C1600,490,1520,490,1440,490C1360,490,1280,490,1200,490C1120,490,1040,490,960,490C880,490,800,490,720,490C640,490,560,490,480,490C400,490,320,490,240,490C160,490,80,490,40,490L0,490Z"/></svg>